<mxfile host="app.diagrams.net" modified="2023-09-28T20:14:03.584Z" agent="Mozilla/5.0 (Windows NT 10.0; Win64; x64) AppleWebKit/537.36 (KHTML, like Gecko) Chrome/117.0.0.0 Safari/537.36" etag="dlHGIN0V2CyOqYAtDxIA" version="21.7.5" type="device">
  <diagram name="Page-1" id="ZV_hSGCbBHfE4JhGIijh">
    <mxGraphModel dx="2145" dy="674" grid="1" gridSize="10" guides="1" tooltips="1" connect="1" arrows="1" fold="1" page="1" pageScale="1" pageWidth="850" pageHeight="1100" math="0" shadow="0">
      <root>
        <mxCell id="0" />
        <mxCell id="1" parent="0" />
        <mxCell id="mteQYX1VKj8PDOPcHZOy-1" value="&lt;font style=&quot;font-size: 21px;&quot;&gt;USER&lt;/font&gt;" style="rounded=0;whiteSpace=wrap;html=1;" vertex="1" parent="1">
          <mxGeometry x="40" y="190" width="120" height="60" as="geometry" />
        </mxCell>
        <mxCell id="mteQYX1VKj8PDOPcHZOy-2" value="&lt;font style=&quot;font-size: 21px;&quot;&gt;CONTACT&lt;/font&gt;" style="rounded=0;whiteSpace=wrap;html=1;" vertex="1" parent="1">
          <mxGeometry x="530" y="180" width="120" height="60" as="geometry" />
        </mxCell>
        <mxCell id="mteQYX1VKj8PDOPcHZOy-3" value="&lt;u style=&quot;border-color: var(--border-color);&quot;&gt;Id&lt;/u&gt;" style="ellipse;whiteSpace=wrap;html=1;" vertex="1" parent="1">
          <mxGeometry x="-50" y="70" width="80" height="30" as="geometry" />
        </mxCell>
        <mxCell id="mteQYX1VKj8PDOPcHZOy-4" value="&lt;span style=&quot;border-color: var(--border-color);&quot;&gt;Name&lt;/span&gt;" style="ellipse;whiteSpace=wrap;html=1;" vertex="1" parent="1">
          <mxGeometry x="10" y="40" width="80" height="30" as="geometry" />
        </mxCell>
        <mxCell id="mteQYX1VKj8PDOPcHZOy-5" value="&lt;u&gt;Email&lt;/u&gt;" style="ellipse;whiteSpace=wrap;html=1;" vertex="1" parent="1">
          <mxGeometry x="80" y="10" width="80" height="30" as="geometry" />
        </mxCell>
        <mxCell id="mteQYX1VKj8PDOPcHZOy-6" value="Password" style="ellipse;whiteSpace=wrap;html=1;" vertex="1" parent="1">
          <mxGeometry x="140" y="40" width="80" height="30" as="geometry" />
        </mxCell>
        <mxCell id="mteQYX1VKj8PDOPcHZOy-7" value="&lt;span style=&quot;border-color: var(--border-color);&quot;&gt;Image&lt;/span&gt;" style="ellipse;whiteSpace=wrap;html=1;" vertex="1" parent="1">
          <mxGeometry x="200" y="80" width="80" height="30" as="geometry" />
        </mxCell>
        <mxCell id="mteQYX1VKj8PDOPcHZOy-8" value="&lt;span style=&quot;border-color: var(--border-color);&quot;&gt;About&lt;/span&gt;" style="ellipse;whiteSpace=wrap;html=1;" vertex="1" parent="1">
          <mxGeometry x="240" y="120" width="80" height="30" as="geometry" />
        </mxCell>
        <mxCell id="mteQYX1VKj8PDOPcHZOy-9" value="&lt;span style=&quot;border-color: var(--border-color);&quot;&gt;Role&lt;/span&gt;" style="ellipse;whiteSpace=wrap;html=1;" vertex="1" parent="1">
          <mxGeometry x="-110" y="100" width="80" height="30" as="geometry" />
        </mxCell>
        <mxCell id="mteQYX1VKj8PDOPcHZOy-10" value="&lt;span style=&quot;border-color: var(--border-color);&quot;&gt;enabled&lt;/span&gt;" style="ellipse;whiteSpace=wrap;html=1;" vertex="1" parent="1">
          <mxGeometry x="-160" y="140" width="80" height="30" as="geometry" />
        </mxCell>
        <mxCell id="mteQYX1VKj8PDOPcHZOy-14" value="" style="endArrow=none;html=1;rounded=0;" edge="1" parent="1" target="mteQYX1VKj8PDOPcHZOy-10">
          <mxGeometry width="50" height="50" relative="1" as="geometry">
            <mxPoint x="100" y="190" as="sourcePoint" />
            <mxPoint x="350" y="200" as="targetPoint" />
          </mxGeometry>
        </mxCell>
        <mxCell id="mteQYX1VKj8PDOPcHZOy-15" value="" style="endArrow=none;html=1;rounded=0;entryX=0.5;entryY=1;entryDx=0;entryDy=0;exitX=0.5;exitY=0;exitDx=0;exitDy=0;" edge="1" parent="1" source="mteQYX1VKj8PDOPcHZOy-1" target="mteQYX1VKj8PDOPcHZOy-9">
          <mxGeometry width="50" height="50" relative="1" as="geometry">
            <mxPoint x="80" y="200" as="sourcePoint" />
            <mxPoint x="-93" y="182" as="targetPoint" />
          </mxGeometry>
        </mxCell>
        <mxCell id="mteQYX1VKj8PDOPcHZOy-16" value="" style="endArrow=none;html=1;rounded=0;exitX=0.5;exitY=0;exitDx=0;exitDy=0;" edge="1" parent="1" source="mteQYX1VKj8PDOPcHZOy-1" target="mteQYX1VKj8PDOPcHZOy-3">
          <mxGeometry width="50" height="50" relative="1" as="geometry">
            <mxPoint x="90" y="199" as="sourcePoint" />
            <mxPoint x="-60" y="140" as="targetPoint" />
          </mxGeometry>
        </mxCell>
        <mxCell id="mteQYX1VKj8PDOPcHZOy-17" value="" style="endArrow=none;html=1;rounded=0;entryX=0.438;entryY=0.993;entryDx=0;entryDy=0;entryPerimeter=0;" edge="1" parent="1" target="mteQYX1VKj8PDOPcHZOy-4">
          <mxGeometry width="50" height="50" relative="1" as="geometry">
            <mxPoint x="100" y="190" as="sourcePoint" />
            <mxPoint x="9" y="111" as="targetPoint" />
          </mxGeometry>
        </mxCell>
        <mxCell id="mteQYX1VKj8PDOPcHZOy-18" value="" style="endArrow=none;html=1;rounded=0;" edge="1" parent="1">
          <mxGeometry width="50" height="50" relative="1" as="geometry">
            <mxPoint x="100" y="190" as="sourcePoint" />
            <mxPoint x="120" y="40" as="targetPoint" />
          </mxGeometry>
        </mxCell>
        <mxCell id="mteQYX1VKj8PDOPcHZOy-19" value="" style="endArrow=none;html=1;rounded=0;" edge="1" parent="1" target="mteQYX1VKj8PDOPcHZOy-6">
          <mxGeometry width="50" height="50" relative="1" as="geometry">
            <mxPoint x="100" y="190" as="sourcePoint" />
            <mxPoint x="126" y="49" as="targetPoint" />
          </mxGeometry>
        </mxCell>
        <mxCell id="mteQYX1VKj8PDOPcHZOy-20" value="" style="endArrow=none;html=1;rounded=0;entryX=0;entryY=1;entryDx=0;entryDy=0;" edge="1" parent="1" target="mteQYX1VKj8PDOPcHZOy-7">
          <mxGeometry width="50" height="50" relative="1" as="geometry">
            <mxPoint x="100" y="190" as="sourcePoint" />
            <mxPoint x="173" y="83" as="targetPoint" />
          </mxGeometry>
        </mxCell>
        <mxCell id="mteQYX1VKj8PDOPcHZOy-21" value="" style="endArrow=none;html=1;rounded=0;entryX=0;entryY=0.5;entryDx=0;entryDy=0;exitX=0.5;exitY=0;exitDx=0;exitDy=0;" edge="1" parent="1" source="mteQYX1VKj8PDOPcHZOy-1" target="mteQYX1VKj8PDOPcHZOy-8">
          <mxGeometry width="50" height="50" relative="1" as="geometry">
            <mxPoint x="132" y="199" as="sourcePoint" />
            <mxPoint x="228" y="120" as="targetPoint" />
          </mxGeometry>
        </mxCell>
        <mxCell id="mteQYX1VKj8PDOPcHZOy-23" value="&lt;span style=&quot;border-color: var(--border-color);&quot;&gt;cId&lt;/span&gt;" style="ellipse;whiteSpace=wrap;html=1;" vertex="1" parent="1">
          <mxGeometry x="440" y="60" width="80" height="30" as="geometry" />
        </mxCell>
        <mxCell id="mteQYX1VKj8PDOPcHZOy-24" value="&lt;span style=&quot;border-color: var(--border-color);&quot;&gt;Description&lt;br&gt;&lt;/span&gt;" style="ellipse;whiteSpace=wrap;html=1;" vertex="1" parent="1">
          <mxGeometry x="380" y="110" width="80" height="30" as="geometry" />
        </mxCell>
        <mxCell id="mteQYX1VKj8PDOPcHZOy-25" value="&lt;span style=&quot;border-color: var(--border-color);&quot;&gt;Phone&lt;/span&gt;" style="ellipse;whiteSpace=wrap;html=1;" vertex="1" parent="1">
          <mxGeometry x="330" y="150" width="80" height="30" as="geometry" />
        </mxCell>
        <mxCell id="mteQYX1VKj8PDOPcHZOy-26" value="&lt;span style=&quot;border-color: var(--border-color);&quot;&gt;Name&lt;/span&gt;" style="ellipse;whiteSpace=wrap;html=1;" vertex="1" parent="1">
          <mxGeometry x="510" y="30" width="80" height="30" as="geometry" />
        </mxCell>
        <mxCell id="mteQYX1VKj8PDOPcHZOy-27" value="nickName" style="ellipse;whiteSpace=wrap;html=1;" vertex="1" parent="1">
          <mxGeometry x="610" y="30" width="80" height="30" as="geometry" />
        </mxCell>
        <mxCell id="mteQYX1VKj8PDOPcHZOy-28" value="&lt;span style=&quot;border-color: var(--border-color);&quot;&gt;Work&lt;/span&gt;" style="ellipse;whiteSpace=wrap;html=1;" vertex="1" parent="1">
          <mxGeometry x="680" y="70" width="80" height="30" as="geometry" />
        </mxCell>
        <mxCell id="mteQYX1VKj8PDOPcHZOy-29" value="&lt;span style=&quot;border-color: var(--border-color);&quot;&gt;Email&lt;/span&gt;" style="ellipse;whiteSpace=wrap;html=1;" vertex="1" parent="1">
          <mxGeometry x="740" y="110" width="80" height="30" as="geometry" />
        </mxCell>
        <mxCell id="mteQYX1VKj8PDOPcHZOy-30" value="Image" style="ellipse;whiteSpace=wrap;html=1;" vertex="1" parent="1">
          <mxGeometry x="760" y="160" width="80" height="30" as="geometry" />
        </mxCell>
        <mxCell id="mteQYX1VKj8PDOPcHZOy-31" value="" style="endArrow=none;html=1;rounded=0;exitX=0.5;exitY=0;exitDx=0;exitDy=0;entryX=1;entryY=0.5;entryDx=0;entryDy=0;" edge="1" parent="1" source="mteQYX1VKj8PDOPcHZOy-2" target="mteQYX1VKj8PDOPcHZOy-25">
          <mxGeometry width="50" height="50" relative="1" as="geometry">
            <mxPoint x="670" y="130" as="sourcePoint" />
            <mxPoint x="720" y="80" as="targetPoint" />
          </mxGeometry>
        </mxCell>
        <mxCell id="mteQYX1VKj8PDOPcHZOy-32" value="" style="endArrow=none;html=1;rounded=0;exitX=0.5;exitY=0;exitDx=0;exitDy=0;" edge="1" parent="1" source="mteQYX1VKj8PDOPcHZOy-2" target="mteQYX1VKj8PDOPcHZOy-24">
          <mxGeometry width="50" height="50" relative="1" as="geometry">
            <mxPoint x="558" y="190" as="sourcePoint" />
            <mxPoint x="398" y="189" as="targetPoint" />
          </mxGeometry>
        </mxCell>
        <mxCell id="mteQYX1VKj8PDOPcHZOy-33" value="" style="endArrow=none;html=1;rounded=0;" edge="1" parent="1" target="mteQYX1VKj8PDOPcHZOy-23">
          <mxGeometry width="50" height="50" relative="1" as="geometry">
            <mxPoint x="590" y="180" as="sourcePoint" />
            <mxPoint x="458" y="146" as="targetPoint" />
          </mxGeometry>
        </mxCell>
        <mxCell id="mteQYX1VKj8PDOPcHZOy-34" value="" style="endArrow=none;html=1;rounded=0;" edge="1" parent="1" target="mteQYX1VKj8PDOPcHZOy-26">
          <mxGeometry width="50" height="50" relative="1" as="geometry">
            <mxPoint x="590" y="180" as="sourcePoint" />
            <mxPoint x="501" y="99" as="targetPoint" />
          </mxGeometry>
        </mxCell>
        <mxCell id="mteQYX1VKj8PDOPcHZOy-35" value="" style="endArrow=none;html=1;rounded=0;exitX=0.5;exitY=0;exitDx=0;exitDy=0;" edge="1" parent="1" source="mteQYX1VKj8PDOPcHZOy-2" target="mteQYX1VKj8PDOPcHZOy-27">
          <mxGeometry width="50" height="50" relative="1" as="geometry">
            <mxPoint x="585" y="187" as="sourcePoint" />
            <mxPoint x="560" y="60" as="targetPoint" />
          </mxGeometry>
        </mxCell>
        <mxCell id="mteQYX1VKj8PDOPcHZOy-36" value="" style="endArrow=none;html=1;rounded=0;exitX=0.5;exitY=0;exitDx=0;exitDy=0;entryX=0;entryY=1;entryDx=0;entryDy=0;" edge="1" parent="1" source="mteQYX1VKj8PDOPcHZOy-2" target="mteQYX1VKj8PDOPcHZOy-28">
          <mxGeometry width="50" height="50" relative="1" as="geometry">
            <mxPoint x="600" y="190" as="sourcePoint" />
            <mxPoint x="653" y="70" as="targetPoint" />
          </mxGeometry>
        </mxCell>
        <mxCell id="mteQYX1VKj8PDOPcHZOy-37" value="" style="endArrow=none;html=1;rounded=0;exitX=0.5;exitY=0;exitDx=0;exitDy=0;entryX=0;entryY=0.5;entryDx=0;entryDy=0;" edge="1" parent="1" source="mteQYX1VKj8PDOPcHZOy-2" target="mteQYX1VKj8PDOPcHZOy-29">
          <mxGeometry width="50" height="50" relative="1" as="geometry">
            <mxPoint x="600" y="190" as="sourcePoint" />
            <mxPoint x="702" y="106" as="targetPoint" />
          </mxGeometry>
        </mxCell>
        <mxCell id="mteQYX1VKj8PDOPcHZOy-38" value="" style="endArrow=none;html=1;rounded=0;entryX=0;entryY=0;entryDx=0;entryDy=0;exitX=0.5;exitY=0;exitDx=0;exitDy=0;" edge="1" parent="1" source="mteQYX1VKj8PDOPcHZOy-2" target="mteQYX1VKj8PDOPcHZOy-30">
          <mxGeometry width="50" height="50" relative="1" as="geometry">
            <mxPoint x="600" y="170" as="sourcePoint" />
            <mxPoint x="750" y="135" as="targetPoint" />
          </mxGeometry>
        </mxCell>
        <mxCell id="mteQYX1VKj8PDOPcHZOy-40" value="Has" style="rhombus;whiteSpace=wrap;html=1;" vertex="1" parent="1">
          <mxGeometry x="290" y="390" width="80" height="80" as="geometry" />
        </mxCell>
        <mxCell id="mteQYX1VKj8PDOPcHZOy-41" value="" style="endArrow=none;html=1;rounded=0;entryX=0.5;entryY=1;entryDx=0;entryDy=0;exitX=0;exitY=0.5;exitDx=0;exitDy=0;" edge="1" parent="1" source="mteQYX1VKj8PDOPcHZOy-40" target="mteQYX1VKj8PDOPcHZOy-1">
          <mxGeometry width="50" height="50" relative="1" as="geometry">
            <mxPoint x="250" y="320" as="sourcePoint" />
            <mxPoint x="300" y="270" as="targetPoint" />
          </mxGeometry>
        </mxCell>
        <mxCell id="mteQYX1VKj8PDOPcHZOy-42" value="" style="endArrow=none;html=1;rounded=0;exitX=1;exitY=0.5;exitDx=0;exitDy=0;" edge="1" parent="1" source="mteQYX1VKj8PDOPcHZOy-40" target="mteQYX1VKj8PDOPcHZOy-2">
          <mxGeometry width="50" height="50" relative="1" as="geometry">
            <mxPoint x="300" y="440" as="sourcePoint" />
            <mxPoint x="110" y="260" as="targetPoint" />
          </mxGeometry>
        </mxCell>
        <mxCell id="mteQYX1VKj8PDOPcHZOy-43" value="1" style="text;html=1;strokeColor=none;fillColor=none;align=center;verticalAlign=middle;whiteSpace=wrap;rounded=0;" vertex="1" parent="1">
          <mxGeometry x="120" y="310" width="60" height="30" as="geometry" />
        </mxCell>
        <mxCell id="mteQYX1VKj8PDOPcHZOy-44" value="n" style="text;html=1;strokeColor=none;fillColor=none;align=center;verticalAlign=middle;whiteSpace=wrap;rounded=0;" vertex="1" parent="1">
          <mxGeometry x="460" y="310" width="60" height="30" as="geometry" />
        </mxCell>
      </root>
    </mxGraphModel>
  </diagram>
</mxfile>
